<svg xmlns="http://www.w3.org/2000/svg" viewBox="0 0 28 24.785" width="400" height="354.066"><rect width="28" height="24.785" fill="#ffffff"/><path fill="#1e7a46" d="M14 2L13.5 2.866L13 3.732L12.5 4.598L12 5.464L11.5 6.33L11 7.196L10.5 8.062L10 8.928L9.5 9.794L10.5 9.794L11.5 9.794L12.5 9.794L13.5 9.794L14.5 9.794L15.5 9.794L16.5 9.794L17.5 9.794L18.5 9.794L18 8.928L17.5 8.062L17 7.196L16.5 6.33L16 5.464L15.5 4.598L15 3.732L14.5 2.866ZM14 3.732L14.5 4.598L15 5.464L15.5 6.33L16 7.196L16.5 8.062L17 8.928L16 8.928L15 8.928L14 8.928L13 8.928L12 8.928L11 8.928L11.5 8.062L12 7.196L12.5 6.33L13 5.464L13.5 4.598ZM14 5.464L13.5 6.33L13 7.196L12.5 8.062L13.5 8.062L14.5 8.062L15.5 8.062L15 7.196L14.5 6.33ZM11 14.124L11.5 14.99L12 15.856L12.5 16.722L13 17.588L13.5 18.454L14 19.321L14.5 18.454L15 17.588L15.5 16.722L16 15.856L16.5 14.99L17 14.124L16 14.124L15 14.124L14 14.124L13 14.124L12 14.124ZM12.5 14.99L13.5 14.99L14.5 14.99L15.5 14.99L15 15.856L14.5 16.722L14 17.588L13.5 16.722L13 15.856ZM6.5 14.99L6 15.856L5.5 16.722L5 17.588L4.5 18.454L4 19.321L3.5 20.187L3 21.053L2.5 21.919L2 22.785L3 22.785L4 22.785L5 22.785L6 22.785L7 22.785L8 22.785L9 22.785L10 22.785L11 22.785L10.5 21.919L10 21.053L9.5 20.187L9 19.321L8.5 18.454L8 17.588L7.5 16.722L7 15.856ZM21.5 14.99L21 15.856L20.5 16.722L20 17.588L19.5 18.454L19 19.321L18.5 20.187L18 21.053L17.5 21.919L17 22.785L18 22.785L19 22.785L20 22.785L21 22.785L22 22.785L23 22.785L24 22.785L25 22.785L26 22.785L25.5 21.919L25 21.053L24.5 20.187L24 19.321L23.5 18.454L23 17.588L22.5 16.722L22 15.856ZM6.5 16.722L7 17.588L7.5 18.454L8 19.321L8.5 20.187L9 21.053L9.5 21.919L8.5 21.919L7.5 21.919L6.5 21.919L5.5 21.919L4.5 21.919L3.5 21.919L4 21.053L4.5 20.187L5 19.321L5.5 18.454L6 17.588ZM21.5 16.722L22 17.588L22.5 18.454L23 19.321L23.5 20.187L24 21.053L24.5 21.919L23.5 21.919L22.5 21.919L21.5 21.919L20.5 21.919L19.5 21.919L18.5 21.919L19 21.053L19.5 20.187L20 19.321L20.5 18.454L21 17.588ZM6.5 18.454L6 19.321L5.5 20.187L5 21.053L6 21.053L7 21.053L8 21.053L7.5 20.187L7 19.321ZM21.5 18.454L21 19.321L20.5 20.187L20 21.053L21 21.053L22 21.053L23 21.053L22.5 20.187L22 19.321ZM9 10.706L9.46 11.503L8.54 11.503ZM10.04 10.683L10.96 10.683L10.5 11.48ZM11.04 10.683L11.96 10.683L11.5 11.48ZM12 10.706L12.46 11.503L11.54 11.503ZM12.04 10.683L12.96 10.683L12.5 11.48ZM13.04 10.683L13.96 10.683L13.5 11.48ZM14 10.706L14.46 11.503L13.54 11.503ZM14.04 10.683L14.96 10.683L14.5 11.48ZM15.04 10.683L15.96 10.683L15.5 11.48ZM16.04 10.683L16.96 10.683L16.5 11.48ZM18 10.706L18.46 11.503L17.54 11.503ZM18.04 10.683L18.96 10.683L18.5 11.48ZM9.54 11.549L10.46 11.549L10 12.346ZM10.5 11.572L10.96 12.369L10.04 12.369ZM12.54 11.549L13.46 11.549L13 12.346ZM14.5 11.572L14.96 12.369L14.04 12.369ZM14.54 11.549L15.46 11.549L15 12.346ZM15.54 11.549L16.46 11.549L16 12.346ZM17.5 11.572L17.96 12.369L17.04 12.369ZM18.54 11.549L19.46 11.549L19 12.346ZM9.04 12.415L9.96 12.415L9.5 13.212ZM11 12.438L11.46 13.235L10.54 13.235ZM11.04 12.415L11.96 12.415L11.5 13.212ZM12.04 12.415L12.96 12.415L12.5 13.212ZM13.04 12.415L13.96 12.415L13.5 13.212ZM14 12.438L14.46 13.235L13.54 13.235ZM14.04 12.415L14.96 12.415L14.5 13.212ZM15 12.438L15.46 13.235L14.54 13.235ZM16.04 12.415L16.96 12.415L16.5 13.212ZM17 12.438L17.46 13.235L16.54 13.235ZM17.04 12.415L17.96 12.415L17.5 13.212ZM18.04 12.415L18.96 12.415L18.5 13.212ZM19 12.438L19.46 13.235L18.54 13.235ZM19.04 12.415L19.96 12.415L19.5 13.212ZM7.54 13.281L8.46 13.281L8 14.078ZM10.5 13.305L10.96 14.101L10.04 14.101ZM10.54 13.281L11.46 13.281L11 14.078ZM11.5 13.305L11.96 14.101L11.04 14.101ZM12.5 13.305L12.96 14.101L12.04 14.101ZM12.54 13.281L13.46 13.281L13 14.078ZM13.5 13.305L13.96 14.101L13.04 14.101ZM13.54 13.281L14.46 13.281L14 14.078ZM14.54 13.281L15.46 13.281L15 14.078ZM15.5 13.305L15.96 14.101L15.04 14.101ZM15.54 13.281L16.46 13.281L16 14.078ZM16.54 13.281L17.46 13.281L17 14.078ZM18.5 13.305L18.96 14.101L18.04 14.101ZM19.54 13.281L20.46 13.281L20 14.078ZM7.04 14.147L7.96 14.147L7.5 14.944ZM8 14.171L8.46 14.967L7.54 14.967ZM9 14.171L9.46 14.967L8.54 14.967ZM9.04 14.147L9.96 14.147L9.5 14.944ZM11 14.171L11.46 14.967L10.54 14.967ZM18 14.171L18.46 14.967L17.54 14.967ZM19 14.171L19.46 14.967L18.54 14.967ZM7.54 15.013L8.46 15.013L8 15.81ZM9.5 15.037L9.96 15.833L9.04 15.833ZM9.54 15.013L10.46 15.013L10 15.81ZM10.5 15.037L10.96 15.833L10.04 15.833ZM16.54 15.013L17.46 15.013L17 15.81ZM17.5 15.037L17.96 15.833L17.04 15.833ZM17.54 15.013L18.46 15.013L18 15.81ZM18.54 15.013L19.46 15.013L19 15.81ZM9.04 15.88L9.96 15.88L9.5 16.676ZM10 15.903L10.46 16.699L9.54 16.699ZM10.04 15.88L10.96 15.88L10.5 16.676ZM11.04 15.88L11.96 15.88L11.5 16.676ZM12 15.903L12.46 16.699L11.54 16.699ZM19.04 15.88L19.96 15.88L19.5 16.676ZM8.54 16.746L9.46 16.746L9 17.542ZM9.5 16.769L9.96 17.565L9.04 17.565ZM10.54 16.746L11.46 16.746L11 17.542ZM11.5 16.769L11.96 17.565L11.04 17.565ZM12.5 16.769L12.96 17.565L12.04 17.565ZM15.5 16.769L15.96 17.565L15.04 17.565ZM15.54 16.746L16.46 16.746L16 17.542ZM17.54 16.746L18.46 16.746L18 17.542ZM18.5 16.769L18.96 17.565L18.04 17.565ZM18.54 16.746L19.46 16.746L19 17.542ZM9.04 17.612L9.96 17.612L9.5 18.408ZM10 17.635L10.46 18.431L9.54 18.431ZM10.04 17.612L10.96 17.612L10.5 18.408ZM12 17.635L12.46 18.431L11.54 18.431ZM12.04 17.612L12.96 17.612L12.5 18.408ZM17 17.635L17.46 18.431L16.54 18.431ZM17.04 17.612L17.96 17.612L17.5 18.408ZM18 17.635L18.46 18.431L17.54 18.431ZM18.04 17.612L18.96 17.612L18.5 18.408ZM9.54 18.478L10.46 18.478L10 19.274ZM10.5 18.501L10.96 19.297L10.04 19.297ZM13.5 18.501L13.96 19.297L13.04 19.297ZM14.54 18.478L15.46 18.478L15 19.274ZM16.5 18.501L16.96 19.297L16.04 19.297ZM16.54 18.478L17.46 18.478L17 19.274ZM17.5 18.501L17.96 19.297L17.04 19.297ZM10.04 19.344L10.96 19.344L10.5 20.14ZM11 19.367L11.46 20.163L10.54 20.163ZM11.04 19.344L11.96 19.344L11.5 20.14ZM13.04 19.344L13.96 19.344L13.5 20.14ZM16 19.367L16.46 20.163L15.54 20.163ZM16.04 19.344L16.96 19.344L16.5 20.14ZM12.54 20.21L13.46 20.21L13 21.006ZM13.54 20.21L14.46 20.21L14 21.006ZM14.54 20.21L15.46 20.21L15 21.006ZM15.5 20.233L15.96 21.029L15.04 21.029ZM16.54 20.21L17.46 20.21L17 21.006ZM14 21.099L14.46 21.895L13.54 21.895ZM14.04 21.076L14.96 21.076L14.5 21.872ZM15.04 21.076L15.96 21.076L15.5 21.872ZM11.54 21.942L12.46 21.942L12 22.738ZM14.54 21.942L15.46 21.942L15 22.738ZM15.5 21.965L15.96 22.762L15.04 22.762ZM15.54 21.942L16.46 21.942L16 22.738Z"/></svg>